<?xml version="1.0" encoding="UTF-8"?>
<svg width="81px" height="79px" viewBox="0 0 81 79" version="1.1" xmlns="http://www.w3.org/2000/svg" xmlns:xlink="http://www.w3.org/1999/xlink">
    <!-- Generator: Sketch 52.6 (67491) - http://www.bohemiancoding.com/sketch -->
    <title>majarah</title>
    <desc>Created with Sketch.</desc>
    <g id="Page-1" stroke="none" stroke-width="1" fill="none" fill-rule="evenodd">
        <path d="M79.8004147,25.254 C76.9098147,12.488 68.5034147,4.043 59.3594147,0 C70.7304147,10.02 81.2074147,29.406 68.1719147,47.07 C62.7657147,54.402 51.9529147,57.297 47.4259147,55.2536 C47.4259147,55.2536 54.4298147,53.7653 58.7809147,49.9567 C67.2497147,41.9411 70.0819147,29.0227 63.3004147,17.2847 C62.3316647,15.605 61.2027147,14.0777 59.9449147,12.7105 C59.9253847,12.69097 59.9136647,12.66753 59.8941347,12.648 C55.1285347,6.9644 48.5851347,3.5738 41.5581347,2.531 C32.4292347,0.8162 20.6631347,3.04662 11.8471347,11.1951 C2.23773473,20.0857 -0.871869271,31.5901 0.202130729,41.5311 C3.19043473,26.6721 14.7451347,7.9101 36.5571347,10.3591 C45.6118347,11.3786 53.5221347,19.2927 54.0181347,24.2381 C54.0181347,24.2381 48.7408347,15.9569 35.6551247,15.9569 C35.4168447,15.96081 34.9090347,15.98034 34.8934047,15.98034 C34.8387247,15.98424 34.7840247,15.98815 34.7254347,15.99206 C26.2137347,16.32409 17.9444347,20.77726 12.8974447,29.51906 C11.9286947,31.19486 11.1708447,32.93706 10.6122447,34.71436 C10.6005247,34.73779 10.5927047,34.76514 10.5848947,34.78858 C8.04579473,41.75738 8.38179473,49.11658 10.9911447,55.72658 C14.0692447,64.48828 21.8861447,73.56658 33.3501447,77.12458 C45.8541447,81.003476 57.3701447,77.94489 65.4441447,72.04648 C51.0811447,76.87848 29.0531447,76.25738 20.2681447,56.14448 C16.6236447,47.79288 19.5181447,36.98448 23.5533447,34.08248 C23.5533447,34.08248 19.0181447,42.79338 25.5650447,54.12547 C30.0455447,61.60987 38.1820447,66.78147 48.5140447,66.78147 C49.0101347,66.78147 53.0023447,66.46897 54.4398447,66.14866 C54.4671947,66.14476 54.4945347,66.14085 54.5179747,66.13695 C61.8226747,64.85175 68.0299747,60.87915 72.4479747,55.31695 C78.5026747,48.27395 82.4559747,36.96195 79.7995747,25.25495 L79.8004147,25.254 Z" id="majarah" fill="#000000"></path>
    </g>
</svg>